<svg xmlns="http://www.w3.org/2000/svg" viewBox="0 0 800 600" width="800" height="600">
  <defs>
    <linearGradient id="bg" x1="0" y1="0" x2="0" y2="1">
      <stop offset="0" stop-color="#FAF8F5"/>
      <stop offset="1" stop-color="#EDE5D4"/>
    </linearGradient>
  </defs>
  <rect width="800" height="600" fill="url(#bg)"/>
  <line x1="60" y1="490" x2="740" y2="490" stroke="#D4CEC6" stroke-width="1"/>
  <g stroke="#2A2620" stroke-width="2.5" fill="none" stroke-linecap="square">
    <rect x="140" y="240" width="520" height="210"/>
    <line x1="270" y1="240" x2="270" y2="450"/>
    <line x1="400" y1="240" x2="400" y2="450"/>
    <line x1="530" y1="240" x2="530" y2="450"/>
    <line x1="140" y1="340" x2="660" y2="340"/>
    <line x1="160" y1="450" x2="160" y2="490"/>
    <line x1="220" y1="450" x2="220" y2="490"/>
    <line x1="580" y1="450" x2="580" y2="490"/>
    <line x1="640" y1="450" x2="640" y2="490"/>
  </g>
  <g fill="#C4713A">
    <circle cx="205" cy="290" r="4"/>
    <circle cx="335" cy="290" r="4"/>
    <circle cx="465" cy="290" r="4"/>
    <circle cx="595" cy="290" r="4"/>
    <circle cx="205" cy="395" r="4"/>
    <circle cx="335" cy="395" r="4"/>
    <circle cx="465" cy="395" r="4"/>
    <circle cx="595" cy="395" r="4"/>
  </g>
  <g fill="#2A2620" opacity="0.85">
    <rect x="320" y="170" width="30" height="70"/>
    <rect x="460" y="190" width="22" height="50"/>
    <rect x="245" y="195" width="18" height="45"/>
  </g>
  <ellipse cx="550" cy="215" rx="25" ry="8" stroke="#2A2620" stroke-width="2" fill="none"/>
  <line x1="550" y1="215" x2="550" y2="240" stroke="#2A2620" stroke-width="2"/>
</svg>
