<svg xmlns="http://www.w3.org/2000/svg" viewBox="0 0 800 600" width="800" height="600">
  <defs>
    <linearGradient id="bg" x1="0" y1="0" x2="0" y2="1">
      <stop offset="0" stop-color="#FAF8F5"/>
      <stop offset="1" stop-color="#EDE5D4"/>
    </linearGradient>
  </defs>
  <rect width="800" height="600" fill="url(#bg)"/>
  <g stroke="#2A2620" stroke-width="3" fill="#FAF8F5">
    <rect x="120" y="100" width="180" height="220"/>
    <rect x="330" y="140" width="140" height="160"/>
    <rect x="500" y="100" width="200" height="150"/>
    <rect x="180" y="350" width="140" height="160"/>
    <rect x="360" y="330" width="230" height="180"/>
  </g>
  <g stroke="#2A2620" stroke-width="1.5" fill="none">
    <rect x="140" y="120" width="140" height="180"/>
    <rect x="350" y="160" width="100" height="120"/>
    <rect x="520" y="120" width="160" height="110"/>
    <rect x="200" y="370" width="100" height="120"/>
    <rect x="380" y="350" width="190" height="140"/>
  </g>
  <!-- Art in frames -->
  <g fill="#C4713A" opacity="0.85">
    <circle cx="210" cy="210" r="50"/>
    <rect x="370" y="180" width="60" height="90"/>
    <path d="M 540 200 L 620 200 L 640 170 L 660 210 L 540 210 Z"/>
    <rect x="215" y="410" width="65" height="70"/>
    <circle cx="440" cy="410" r="35"/>
    <rect x="480" y="390" width="80" height="90"/>
  </g>
  <g stroke="#2A2620" stroke-width="1" opacity="0.4">
    <line x1="0" y1="530" x2="800" y2="530"/>
  </g>
</svg>
